<?xml version="1.0" standalone="no"?>
<!DOCTYPE svg PUBLIC "-//W3C//DTD SVG 20010904//EN"
 "http://www.w3.org/TR/2001/REC-SVG-20010904/DTD/svg10.dtd">
<svg version="1.0" xmlns="http://www.w3.org/2000/svg"
 width="1200.000000pt" height="1200.000000pt" viewBox="0 0 1200.000000 1200.000000"
 preserveAspectRatio="xMidYMid meet">

<g transform="translate(0.000000,1200.000000) scale(0.100000,-0.100000)"
fill="#000000" stroke="none">
<path d="M4835 11240 c-270 -36 -520 -162 -720 -364 -148 -149 -241 -301 -305
-495 -59 -181 -60 -206 -60 -1233 0 -1052 -4 -995 75 -1073 98 -98 252 -98
350 0 79 78 75 22 75 1067 0 810 2 939 16 1006 57 278 260 495 543 580 52 16
190 17 1749 20 l1692 2 0 -792 c0 -843 2 -884 50 -1058 29 -105 128 -303 199
-396 149 -199 373 -362 601 -438 190 -63 134 -60 1188 -63 l962 -4 -3 -3067
c-2 -2873 -3 -3071 -20 -3123 -83 -271 -274 -461 -539 -536 -60 -17 -201 -18
-2938 -18 -2754 0 -2878 1 -2940 18 -147 42 -282 127 -378 240 -126 148 -181
307 -182 522 0 130 -10 170 -53 227 -46 60 -104 90 -186 95 -58 4 -72 2 -121
-24 -61 -32 -114 -93 -130 -151 -15 -55 -12 -250 6 -369 39 -265 153 -491 349
-689 178 -180 371 -287 635 -350 71 -18 223 -19 2953 -21 3130 -4 2961 -6
3159 51 107 31 228 88 333 157 98 64 273 238 338 336 63 95 141 259 167 353
52 188 50 19 50 3451 0 2908 -1 3190 -16 3235 -15 45 -128 161 -1433 1465
-1304 1305 -1420 1418 -1465 1433 -45 15 -228 16 -1995 15 -1070 -1 -1973 -5
-2006 -9z m5948 -2738 c-60 -2 -403 -1 -763 1 -579 3 -661 5 -711 20 -284 85
-486 301 -543 579 -14 66 -16 180 -16 810 l0 733 1070 -1070 1070 -1070 -107
-3z"/>
<path d="M1488 6240 c-337 -57 -603 -293 -705 -627 -24 -79 -26 -104 -26 -238
0 -134 2 -159 26 -238 92 -300 303 -511 604 -604 l88 -27 495 -5 495 -6 65
-31 c83 -39 145 -101 184 -184 27 -58 31 -75 31 -155 0 -80 -3 -97 -31 -155
-41 -84 -101 -145 -183 -184 l-66 -31 -770 -5 -770 -5 -47 -28 c-144 -84 -170
-275 -53 -392 77 -78 44 -75 879 -75 456 0 765 4 804 10 338 55 607 293 709
627 23 78 26 104 26 233 0 118 -4 160 -22 225 -69 255 -242 463 -475 570 -168
78 -164 78 -716 84 l-495 6 -60 28 c-79 37 -156 114 -191 191 -24 52 -28 74
-29 151 0 80 3 97 31 155 39 82 101 144 184 184 l65 31 765 5 765 5 48 23
c123 61 170 213 105 339 -27 54 -91 107 -146 123 -44 12 -1511 12 -1584 0z"/>
<path d="M4416 6235 c-58 -22 -102 -60 -133 -113 -23 -39 -28 -59 -28 -117 0
-69 7 -86 515 -1355 486 -1214 517 -1287 556 -1327 44 -43 116 -73 179 -73 56
0 124 30 169 75 41 42 65 99 556 1326 338 846 515 1299 518 1330 10 108 -63
219 -168 254 -100 33 -215 0 -275 -80 -15 -18 -200 -467 -412 -997 -211 -530
-387 -967 -390 -971 -3 -4 -180 430 -394 965 -256 640 -399 984 -418 1008 -60
74 -187 108 -275 75z"/>
<path d="M7911 6233 c-24 -9 -63 -35 -86 -58 -80 -80 -75 21 -75 -1425 0
-1446 -5 -1345 75 -1425 78 -78 62 -77 747 -72 654 4 647 3 828 63 388 129
704 468 808 865 38 144 44 245 39 634 -4 362 -5 372 -31 475 -123 478 -471
817 -963 937 -59 14 -151 17 -683 19 -541 3 -620 1 -659 -13z m1284 -507 c237
-69 436 -254 511 -476 41 -122 46 -187 41 -548 -4 -360 -7 -384 -62 -507 -73
-165 -234 -321 -403 -390 -123 -50 -180 -55 -622 -55 l-410 0 0 1001 0 1000
443 -4 c383 -3 450 -6 502 -21z"/>
</g>
</svg>
